<svg width="66" height="9" viewBox="0 0 66 9" fill="none" xmlns="http://www.w3.org/2000/svg">
<path d="M0 1.00195H6.53457V1.58953H3.58115V8.90427H2.95341V1.58953H0V1.00195Z" fill="black"/>
<path d="M15.8074 5.16713H10.8233V8.90403H10.1956V1.00171H10.8233V4.57955H15.8074V1.00171H16.4352V8.90216H15.8074V5.16713Z" fill="black"/>
<path d="M21.2463 1.00171H25.6594V1.58928H21.8741V4.60201H25.3191V5.18958H21.8741V8.31645H25.7748V8.90403H21.2463V1.00171Z" fill="black"/>
<path d="M29.8457 1.00171H34.4649V2.6952H31.6703V4.36623H34.1227V6.05972H31.6703V8.90403H29.8457V1.00171Z" fill="black"/>
<path d="M38.2302 1.00171H40.0548V7.20867H43.3051V8.90216H38.2302V1.00171Z" fill="black"/>
<path d="M46.7253 1.00171H51.458V2.6952H48.55V4.08367H51.1158V5.77716H48.55V7.21054H51.5714V8.90403H46.7253V1.00171Z" fill="black"/>
<path d="M59.5675 4.87334L62.2241 8.90216H60.0799L58.3688 6.24872L56.6803 8.90216H54.5361L57.1927 4.87334L54.6647 1.00171H56.8089L58.4293 3.54101L59.9797 1.00171H62.1239L59.5675 4.87334Z" fill="black"/>
<path d="M64.765 3.35207C64.0843 3.35207 63.5303 2.80379 63.5303 2.13013C63.5303 1.45648 64.0843 0.908203 64.765 0.908203C65.4456 0.908203 65.9996 1.45648 65.9996 2.13013C65.9996 2.80379 65.4456 3.35207 64.765 3.35207ZM64.765 1.09533C64.1883 1.09533 63.7194 1.5594 63.7194 2.13013C63.7194 2.70087 64.1883 3.16494 64.765 3.16494C65.3416 3.16494 65.8106 2.70087 65.8106 2.13013C65.8106 1.5594 65.3416 1.09533 64.765 1.09533Z" fill="black"/>
<path d="M64.376 2.6746V1.5743C64.4384 1.5743 64.722 1.57056 64.7541 1.57056C65.0567 1.57056 65.1644 1.72026 65.1644 1.92235C65.1644 2.12632 65.0378 2.21053 64.9772 2.24047L65.3006 2.6746H64.9924L64.722 2.28912H64.6274V2.6746H64.376ZM64.6293 1.81008V2.05334H64.722C64.8184 2.05334 64.8959 2.01966 64.8959 1.9261C64.8959 1.86434 64.8638 1.80634 64.7428 1.80634C64.7031 1.80634 64.6823 1.80821 64.6293 1.81008Z" fill="black"/>
</svg>
